<?xml version="1.0" standalone="no"?>
<!DOCTYPE svg PUBLIC "-//W3C//DTD SVG 20010904//EN"
 "http://www.w3.org/TR/2001/REC-SVG-20010904/DTD/svg10.dtd">
<svg version="1.0" xmlns="http://www.w3.org/2000/svg"
 width="512.000000pt" height="512.000000pt" viewBox="0 0 512.000000 512.000000"
 preserveAspectRatio="xMidYMid meet">
<metadata>
Created by potrace 1.11, written by Peter Selinger 2001-2013
</metadata>
<g transform="translate(0.000000,512.000000) scale(0.100000,-0.100000)"
fill="#000000" stroke="none">
<path d="M1193 4166 c-118 -29 -221 -104 -268 -196 -58 -115 -58 -115 -64
-645 -6 -476 -7 -491 -27 -530 -39 -72 -92 -103 -192 -112 -105 -9 -156 -53
-154 -133 2 -75 52 -113 160 -124 108 -10 177 -62 201 -151 7 -26 11 -191 11
-470 0 -244 5 -457 10 -493 39 -236 182 -361 432 -379 93 -6 134 7 164 52 23
36 20 108 -6 145 -27 38 -45 45 -130 54 -93 10 -157 47 -190 111 l-25 49 -6
491 c-5 480 -6 491 -28 553 -13 35 -39 86 -57 114 l-34 50 30 46 c35 52 67
136 81 206 5 27 9 245 9 486 0 465 2 493 50 560 31 43 93 72 170 78 113 8 156
52 151 156 -1 18 -14 41 -35 62 -33 33 -35 34 -117 33 -46 0 -107 -6 -136 -13z"/>
<path d="M3684 4147 c-29 -26 -37 -42 -40 -77 -3 -26 1 -55 8 -70 21 -39 75
-70 123 -70 95 0 175 -44 216 -120 11 -20 15 -127 20 -510 5 -416 9 -493 23
-544 20 -67 54 -139 84 -176 l20 -24 -34 -48 c-46 -68 -72 -144 -84 -246 -5
-48 -10 -270 -10 -493 0 -277 -4 -417 -11 -440 -30 -89 -94 -133 -214 -145
-59 -6 -74 -12 -104 -40 -33 -30 -36 -37 -36 -88 0 -50 4 -59 33 -88 32 -33
34 -33 125 -33 115 1 211 29 288 84 66 47 102 97 137 188 l26 68 6 495 c5 494
5 495 29 543 13 26 37 57 53 68 38 28 110 49 163 49 98 0 164 97 122 180 -19
38 -74 70 -122 70 -56 0 -134 25 -167 54 -14 13 -37 43 -50 67 -23 44 -23 45
-29 539 -6 531 -5 527 -61 633 -70 132 -219 207 -410 207 -63 0 -71 -2 -104
-33z"/>
<path d="M1785 1981 c-57 -34 -105 -111 -105 -166 0 -60 60 -148 117 -171 52
-22 120 -18 169 11 61 36 89 86 89 161 0 74 -34 133 -95 164 -51 26 -134 27
-175 1z"/>
<path d="M2485 1989 c-33 -19 -76 -62 -91 -91 -8 -15 -14 -52 -14 -83 0 -111
74 -185 186 -185 134 0 223 143 164 265 -34 70 -79 99 -159 103 -38 1 -75 -2
-86 -9z"/>
<path d="M3165 1982 c-67 -43 -95 -93 -95 -170 0 -59 24 -107 73 -146 35 -28
45 -31 111 -31 65 0 77 3 110 29 99 75 99 227 1 302 -50 38 -153 46 -200 16z"/>
</g>
</svg>
